<mxfile host="app.diagrams.net" modified="2020-03-13T09:06:11.658Z" agent="Mozilla/5.0 (Windows NT 6.1; Win64; x64) AppleWebKit/537.36 (KHTML, like Gecko) Chrome/80.0.3987.132 Safari/537.36" etag="noU6eVpWcbW3xLvNft15" version="12.8.4" type="github">
  <diagram id="TqUtx97v_vY3OHNcVjlT" name="Page-1">
    <mxGraphModel dx="1159" dy="514" grid="1" gridSize="10" guides="1" tooltips="1" connect="1" arrows="1" fold="1" page="1" pageScale="1" pageWidth="850" pageHeight="1100" math="0" shadow="0">
      <root>
        <mxCell id="0" />
        <mxCell id="1" parent="0" />
        <mxCell id="hvfdMANi6U7bOpsbLMLS-1" value="ClaimFile" style="rounded=0;whiteSpace=wrap;html=1;" vertex="1" parent="1">
          <mxGeometry x="360" y="420" width="120" height="60" as="geometry" />
        </mxCell>
        <mxCell id="hvfdMANi6U7bOpsbLMLS-2" value="Policy" style="rounded=0;whiteSpace=wrap;html=1;" vertex="1" parent="1">
          <mxGeometry x="600" y="180" width="120" height="60" as="geometry" />
        </mxCell>
        <mxCell id="hvfdMANi6U7bOpsbLMLS-3" value="ClaimPaymentReport" style="rounded=0;whiteSpace=wrap;html=1;" vertex="1" parent="1">
          <mxGeometry x="100" y="270" width="130" height="60" as="geometry" />
        </mxCell>
        <mxCell id="hvfdMANi6U7bOpsbLMLS-8" style="edgeStyle=orthogonalEdgeStyle;rounded=0;orthogonalLoop=1;jettySize=auto;html=1;entryX=0.5;entryY=1;entryDx=0;entryDy=0;endArrow=none;endFill=0;" edge="1" parent="1" source="hvfdMANi6U7bOpsbLMLS-7" target="hvfdMANi6U7bOpsbLMLS-3">
          <mxGeometry relative="1" as="geometry" />
        </mxCell>
        <mxCell id="hvfdMANi6U7bOpsbLMLS-11" value="M" style="text;html=1;align=center;verticalAlign=middle;resizable=0;points=[];labelBackgroundColor=#ffffff;" vertex="1" connectable="0" parent="hvfdMANi6U7bOpsbLMLS-8">
          <mxGeometry x="-0.7286" y="-1" relative="1" as="geometry">
            <mxPoint as="offset" />
          </mxGeometry>
        </mxCell>
        <mxCell id="hvfdMANi6U7bOpsbLMLS-12" value="1" style="text;html=1;align=center;verticalAlign=middle;resizable=0;points=[];labelBackgroundColor=#ffffff;" vertex="1" connectable="0" parent="hvfdMANi6U7bOpsbLMLS-8">
          <mxGeometry x="0.841" relative="1" as="geometry">
            <mxPoint as="offset" />
          </mxGeometry>
        </mxCell>
        <mxCell id="hvfdMANi6U7bOpsbLMLS-17" style="edgeStyle=orthogonalEdgeStyle;rounded=0;orthogonalLoop=1;jettySize=auto;html=1;entryX=0;entryY=0.5;entryDx=0;entryDy=0;endArrow=none;endFill=0;exitX=0.5;exitY=1;exitDx=0;exitDy=0;" edge="1" parent="1" source="hvfdMANi6U7bOpsbLMLS-7" target="hvfdMANi6U7bOpsbLMLS-16">
          <mxGeometry relative="1" as="geometry">
            <Array as="points">
              <mxPoint x="165" y="560" />
            </Array>
          </mxGeometry>
        </mxCell>
        <mxCell id="hvfdMANi6U7bOpsbLMLS-30" value="1" style="text;html=1;align=center;verticalAlign=middle;resizable=0;points=[];labelBackgroundColor=#ffffff;" vertex="1" connectable="0" parent="hvfdMANi6U7bOpsbLMLS-17">
          <mxGeometry x="-0.9242" y="-1" relative="1" as="geometry">
            <mxPoint as="offset" />
          </mxGeometry>
        </mxCell>
        <mxCell id="hvfdMANi6U7bOpsbLMLS-31" value="1" style="text;html=1;align=center;verticalAlign=middle;resizable=0;points=[];labelBackgroundColor=#ffffff;" vertex="1" connectable="0" parent="hvfdMANi6U7bOpsbLMLS-17">
          <mxGeometry x="-0.4256" y="1" relative="1" as="geometry">
            <mxPoint as="offset" />
          </mxGeometry>
        </mxCell>
        <mxCell id="hvfdMANi6U7bOpsbLMLS-7" value="&lt;span style=&quot;text-align: left ; white-space: nowrap&quot;&gt;ClaimPayment&lt;/span&gt;" style="rounded=0;whiteSpace=wrap;html=1;" vertex="1" parent="1">
          <mxGeometry x="100" y="420" width="130" height="60" as="geometry" />
        </mxCell>
        <mxCell id="hvfdMANi6U7bOpsbLMLS-22" style="edgeStyle=orthogonalEdgeStyle;rounded=0;orthogonalLoop=1;jettySize=auto;html=1;endArrow=none;endFill=0;" edge="1" parent="1" source="hvfdMANi6U7bOpsbLMLS-16" target="hvfdMANi6U7bOpsbLMLS-19">
          <mxGeometry relative="1" as="geometry" />
        </mxCell>
        <mxCell id="hvfdMANi6U7bOpsbLMLS-28" value="1" style="text;html=1;align=center;verticalAlign=middle;resizable=0;points=[];labelBackgroundColor=#ffffff;" vertex="1" connectable="0" parent="hvfdMANi6U7bOpsbLMLS-22">
          <mxGeometry x="-0.6929" relative="1" as="geometry">
            <mxPoint as="offset" />
          </mxGeometry>
        </mxCell>
        <mxCell id="hvfdMANi6U7bOpsbLMLS-29" value="1" style="text;html=1;align=center;verticalAlign=middle;resizable=0;points=[];labelBackgroundColor=#ffffff;" vertex="1" connectable="0" parent="hvfdMANi6U7bOpsbLMLS-22">
          <mxGeometry x="0.7643" y="1" relative="1" as="geometry">
            <mxPoint y="-10.86" as="offset" />
          </mxGeometry>
        </mxCell>
        <mxCell id="hvfdMANi6U7bOpsbLMLS-16" value="&lt;span style=&quot;white-space: nowrap&quot;&gt;claimed_benefit_payment&lt;/span&gt;" style="rounded=0;whiteSpace=wrap;html=1;" vertex="1" parent="1">
          <mxGeometry x="85" y="540" width="160" height="60" as="geometry" />
        </mxCell>
        <mxCell id="hvfdMANi6U7bOpsbLMLS-23" value="M" style="edgeStyle=orthogonalEdgeStyle;rounded=0;orthogonalLoop=1;jettySize=auto;html=1;entryX=0;entryY=0.5;entryDx=0;entryDy=0;endArrow=none;endFill=0;" edge="1" parent="1" source="hvfdMANi6U7bOpsbLMLS-19" target="hvfdMANi6U7bOpsbLMLS-21">
          <mxGeometry x="-0.6842" relative="1" as="geometry">
            <mxPoint as="offset" />
          </mxGeometry>
        </mxCell>
        <mxCell id="hvfdMANi6U7bOpsbLMLS-27" value="1" style="text;html=1;align=center;verticalAlign=middle;resizable=0;points=[];labelBackgroundColor=#ffffff;" vertex="1" connectable="0" parent="hvfdMANi6U7bOpsbLMLS-23">
          <mxGeometry x="0.6982" relative="1" as="geometry">
            <mxPoint as="offset" />
          </mxGeometry>
        </mxCell>
        <mxCell id="hvfdMANi6U7bOpsbLMLS-19" value="&lt;span style=&quot;white-space: nowrap&quot;&gt;claimed_item_payment&lt;/span&gt;" style="rounded=0;whiteSpace=wrap;html=1;" vertex="1" parent="1">
          <mxGeometry x="85" y="680" width="160" height="60" as="geometry" />
        </mxCell>
        <mxCell id="hvfdMANi6U7bOpsbLMLS-24" style="edgeStyle=orthogonalEdgeStyle;rounded=0;orthogonalLoop=1;jettySize=auto;html=1;entryX=0.5;entryY=1;entryDx=0;entryDy=0;endArrow=none;endFill=0;" edge="1" parent="1" source="hvfdMANi6U7bOpsbLMLS-21" target="hvfdMANi6U7bOpsbLMLS-1">
          <mxGeometry relative="1" as="geometry" />
        </mxCell>
        <mxCell id="hvfdMANi6U7bOpsbLMLS-25" value="1" style="text;html=1;align=center;verticalAlign=middle;resizable=0;points=[];labelBackgroundColor=#ffffff;" vertex="1" connectable="0" parent="hvfdMANi6U7bOpsbLMLS-24">
          <mxGeometry x="0.838" y="-1" relative="1" as="geometry">
            <mxPoint as="offset" />
          </mxGeometry>
        </mxCell>
        <mxCell id="hvfdMANi6U7bOpsbLMLS-26" value="M" style="text;html=1;align=center;verticalAlign=middle;resizable=0;points=[];labelBackgroundColor=#ffffff;" vertex="1" connectable="0" parent="hvfdMANi6U7bOpsbLMLS-24">
          <mxGeometry x="-0.7737" y="-3" relative="1" as="geometry">
            <mxPoint as="offset" />
          </mxGeometry>
        </mxCell>
        <mxCell id="hvfdMANi6U7bOpsbLMLS-21" value="&lt;span style=&quot;white-space: nowrap&quot;&gt;claimed_item&lt;/span&gt;" style="rounded=0;whiteSpace=wrap;html=1;" vertex="1" parent="1">
          <mxGeometry x="340" y="680" width="160" height="60" as="geometry" />
        </mxCell>
      </root>
    </mxGraphModel>
  </diagram>
</mxfile>
